<svg xmlns="http://www.w3.org/2000/svg" viewBox="0 0 180 250.52"><defs><style>.cls-1{fill:#23a566;}.cls-2{fill:#1c8f5a;}.cls-3{fill:#8ed1b1;}.cls-4{fill:#fff;fill-rule:evenodd;}</style></defs><g id="Capa_2" data-name="Capa 2"><g id="Capa_1-2" data-name="Capa 1"><path class="cls-1" d="M180,236a14.48,14.48,0,0,1-14.48,14.48h-151A14.48,14.48,0,0,1,0,236V14.54A14.48,14.48,0,0,1,14.48.06H111.6L180,70.12V236Z"/><path class="cls-2" d="M119.14,68.35,180,126.5,179.82,70H126a14.45,14.45,0,0,1-6.78-1.68Z"/><path class="cls-3" d="M180,70H126a14.48,14.48,0,0,1-14.48-14.48V0L180,70Z"/><path class="cls-4" d="M136.81,204.19H43.19V123.12h93.62v81.07Zm-41-69.49v14.48h29.44V134.7Zm0,23.16v13.51h29.44V157.86Zm0,22.2v12.55h29.44V180.06ZM84.21,192.61V180.06H54.77v12.55Zm0-21.24V157.86H54.77v13.51Zm0-22.19V134.7H54.77v14.48Z"/></g></g></svg>