<svg xmlns="http://www.w3.org/2000/svg" viewBox="0 0 1300 1300"><defs><style>.cls-1{fill:#0978b2;}.cls-2,.cls-3{fill:#fff;}.cls-3{fill-rule:evenodd;}</style></defs><g id="Capa_2" data-name="Capa 2"><g id="Capa_1-2" data-name="Capa 1"><rect class="cls-1" width="1300" height="1300"/><path class="cls-2" d="M434,613.36h19.57v78.28H434Zm21.52-22.13c0,3.81-.85,6.55-2.56,8.2s-4.71,2.49-9,2.49-7.32-.83-9-2.49-2.56-4.39-2.56-8.2.85-6.42,2.56-8.13,4.72-2.56,9-2.56,7.33.85,9,2.56S455.5,587.52,455.5,591.23Z"/><path class="cls-2" d="M469.51,691.64V638.35a34.19,34.19,0,0,1,2.1-12.65,19.31,19.31,0,0,1,6.48-8.5,29,29,0,0,1,11.14-4.74,74.61,74.61,0,0,1,16.1-1.51q18.68,0,27.18,6.25t8.5,21.15v53.29H521.44V640.76a35.13,35.13,0,0,0-.45-6,8.35,8.35,0,0,0-2-4.29,9.49,9.49,0,0,0-4.82-2.56,47.12,47.12,0,0,0-17.61,0,10,10,0,0,0-4.89,2.56,8,8,0,0,0-2.11,4.29,35,35,0,0,0-.46,6v50.88Z"/><path class="cls-2" d="M600.63,691.64h-12.2a74.13,74.13,0,0,1-15.58-1.35,19.86,19.86,0,0,1-9.63-4.74,18,18,0,0,1-4.89-9.11,63,63,0,0,1-1.36-14.3v-67L576.54,592v21.38h28.15l-3.16,16.11h-25v31.61a42.23,42.23,0,0,0,.53,7.38,8.78,8.78,0,0,0,2,4.44,7.17,7.17,0,0,0,4.06,2.11,35.34,35.34,0,0,0,6.7.52h14Z"/><path class="cls-2" d="M633.45,659.13a53.72,53.72,0,0,0,.6,8.88,9.11,9.11,0,0,0,7.68,8.13,41,41,0,0,0,8.73.75h12q6.78,0,16.71-.3l-3,15q-4.22.15-7.53.23c-2.2,0-4.34.07-6.39.07H649.56q-10.69,0-17.62-2.41a23.76,23.76,0,0,1-16.48-18,63.83,63.83,0,0,1-1.58-15v-8.43a69.17,69.17,0,0,1,1.65-16,27,27,0,0,1,5.8-11.67,25.39,25.39,0,0,1,11.14-7.15q7-2.42,17.69-2.41a53,53,0,0,1,16.48,2.18,27,27,0,0,1,10.54,6.1,21.92,21.92,0,0,1,5.65,9.26,39.37,39.37,0,0,1,1.65,11.67v2.56a47.34,47.34,0,0,1-.6,8.35,11.39,11.39,0,0,1-2,5,6.83,6.83,0,0,1-3.69,2.41,21.56,21.56,0,0,1-5.57.61Zm16.26-33.43a33.69,33.69,0,0,0-8.28.83,9.29,9.29,0,0,0-5,3,12.08,12.08,0,0,0-2.41,5.87,60.51,60.51,0,0,0-.6,9.41h32.36v-3.46a31.06,31.06,0,0,0-.75-7.38,10,10,0,0,0-2.56-4.81,10.6,10.6,0,0,0-5-2.64,31.41,31.41,0,0,0-7.82-.83Z"/><path class="cls-2" d="M732.35,673a37.36,37.36,0,0,0,8.74-.83,11.07,11.07,0,0,0,5.26-2.79,10,10,0,0,0,2.64-5.27,43.32,43.32,0,0,0,.68-8.43v-7.37a105.82,105.82,0,0,0-.45-10.84,13.33,13.33,0,0,0-2.26-6.63,9.26,9.26,0,0,0-5.27-3.31,48.86,48.86,0,0,0-18.67,0,9.26,9.26,0,0,0-5.27,3.31,13.43,13.43,0,0,0-2.26,6.63,105.82,105.82,0,0,0-.45,10.84v3a90.78,90.78,0,0,0,.53,10.84,14.23,14.23,0,0,0,2.26,6.62,8.82,8.82,0,0,0,5.19,3.31,38.49,38.49,0,0,0,9.33.91Zm17.32,10.23a24.06,24.06,0,0,1-7.68,3.92,42.11,42.11,0,0,1-12.5,1.5,50.55,50.55,0,0,1-16.33-2.26,23.82,23.82,0,0,1-10.54-6.85A27.42,27.42,0,0,1,696.9,668a67.11,67.11,0,0,1-1.73-16.11v-4.22A70.6,70.6,0,0,1,696.75,632a25.39,25.39,0,0,1,5.8-11.51,26.2,26.2,0,0,1,11.36-7.08q7.15-2.42,18.29-2.41,11.29,0,18.52,2.49a26.88,26.88,0,0,1,11.37,7,23.87,23.87,0,0,1,5.64,10.91,61.88,61.88,0,0,1,1.51,14.23v38.84a52.21,52.21,0,0,1-2,15.5,23.2,23.2,0,0,1-6.55,10.54,27.68,27.68,0,0,1-11.6,5.95,67.75,67.75,0,0,1-17.16,1.88H719.71q-3.32,0-7.3-.08T703,718l3.16-15.66q4.22.15,7.6.23t6.33.07H731a38.21,38.21,0,0,0,8.66-.83,12.74,12.74,0,0,0,5.79-2.86,11.28,11.28,0,0,0,3.24-5.64,35.3,35.3,0,0,0,1-9v-1.06Z"/><path class="cls-2" d="M804.77,691.64H785.2V640.16a34,34,0,0,1,2.1-12.72,19.77,19.77,0,0,1,6.18-8.36,25.88,25.88,0,0,1,9.93-4.59,57.06,57.06,0,0,1,13.4-1.43h9.79q4.06,0,8,.15l-3.16,16.26c-2-.1-4.21-.18-6.62-.23s-4.42-.07-6-.07a24.88,24.88,0,0,0-7.53.9,9.33,9.33,0,0,0-4.22,2.64,8.24,8.24,0,0,0-1.88,4.36,45.17,45.17,0,0,0-.37,6.25v48.32Z"/><path class="cls-2" d="M877.48,611a70,70,0,0,1,17.16,1.81,25.53,25.53,0,0,1,11.59,6.1,24.58,24.58,0,0,1,6.55,11.51,67.74,67.74,0,0,1,2,18.07v8.13a67.71,67.71,0,0,1-2,18.06,24.66,24.66,0,0,1-6.55,11.52,25.61,25.61,0,0,1-11.59,6.09,83,83,0,0,1-34.47,0,25.7,25.7,0,0,1-11.6-6.09A24.65,24.65,0,0,1,842,674.63a67.67,67.67,0,0,1-2-18.06v-8.13a67.7,67.7,0,0,1,2-18.07,24.57,24.57,0,0,1,6.54-11.51,25.61,25.61,0,0,1,11.6-6.1A70.66,70.66,0,0,1,877.48,611Zm17.46,37.19a67.61,67.61,0,0,0-.75-11.22,13.83,13.83,0,0,0-2.64-6.55,9.21,9.21,0,0,0-5.26-3,42.13,42.13,0,0,0-8.81-.75,43.2,43.2,0,0,0-8.88.75,9.3,9.3,0,0,0-5.35,3,13.93,13.93,0,0,0-2.63,6.55,67.45,67.45,0,0,0-.76,11.22V657a66.07,66.07,0,0,0,.76,11.14,13.78,13.78,0,0,0,2.63,6.47,9.24,9.24,0,0,0,5.35,3,43.11,43.11,0,0,0,8.88.76,42,42,0,0,0,8.81-.76,9.15,9.15,0,0,0,5.26-3,13.68,13.68,0,0,0,2.64-6.47,66.23,66.23,0,0,0,.75-11.14Z"/><path class="cls-2" d="M1107.06,677.49V665.3a17.23,17.23,0,0,0-.53-4.59,5.59,5.59,0,0,0-2.18-3.09,11.22,11.22,0,0,0-4.67-1.73,48.19,48.19,0,0,0-8-.53h-2.25q-8.6,0-11.6,2.11c-2,1.4-3,4-3,7.68V668q0,4.82,2.79,7.15t10.31,2.33Zm19,0q0,8-3.62,11.07t-12.49,3.08h-24.54q-16.11,0-22.81-6t-6.7-17.31V665q0-12.5,7.38-18.14t23-5.65a55.87,55.87,0,0,1,13,1.28,26.16,26.16,0,0,1,7.75,2.94v-2.71a23.66,23.66,0,0,0-.83-6.78,8.63,8.63,0,0,0-2.78-4.29,11.69,11.69,0,0,0-5.35-2.18,50,50,0,0,0-8.5-.6h-6.33q-3.46,0-7,.07l-7,.15c-2.31,0-4.41.08-6.32.08l3.16-15.81q4.22-.15,10.54-.23t13.85-.07q18.36,0,27,6.47t8.58,20.33v37.63Z"/><path class="cls-2" d="M1185.64,691.64h-12.19a74.07,74.07,0,0,1-15.58-1.35,19.85,19.85,0,0,1-9.64-4.74,18,18,0,0,1-4.89-9.11,63.57,63.57,0,0,1-1.36-14.3v-67l19.58-3.16v21.38h28.15l-3.16,16.11h-25v31.61a42.36,42.36,0,0,0,.52,7.38,8.87,8.87,0,0,0,2,4.44,7.21,7.21,0,0,0,4.06,2.11,35.34,35.34,0,0,0,6.7.52h14Z"/><path class="cls-2" d="M929.27,665.14V638.05a34,34,0,0,1,2.1-12.72,19.57,19.57,0,0,1,6.25-8.36,26.6,26.6,0,0,1,10.16-4.59A60.49,60.49,0,0,1,961.63,611,42.06,42.06,0,0,1,976,613.21a21.81,21.81,0,0,1,9.71,6.47,21.81,21.81,0,0,1,9.79-6.47,43.18,43.18,0,0,1,14.6-2.26,59.74,59.74,0,0,1,13.7,1.43A26.6,26.6,0,0,1,1034,617a19.57,19.57,0,0,1,6.25,8.36,34,34,0,0,1,2.11,12.72v53.59h-19.58V640.76a42.08,42.08,0,0,0-.37-6,8.92,8.92,0,0,0-1.73-4.29,7.94,7.94,0,0,0-4.14-2.56,27.12,27.12,0,0,0-7.46-.83,25.51,25.51,0,0,0-6.92.75,9.31,9.31,0,0,0-4.06,2.26,7.12,7.12,0,0,0-2,3.76,27.33,27.33,0,0,0-.45,5.27v39.37H976.09V640.76a42,42,0,0,0-.38-6,8.44,8.44,0,0,0-1.81-4.29,8.28,8.28,0,0,0-4.14-2.56,33.18,33.18,0,0,0-14.75,0,7.82,7.82,0,0,0-4.06,2.56,8.92,8.92,0,0,0-1.74,4.29,42.08,42.08,0,0,0-.37,6v24.38Z"/><path class="cls-3" d="M192.3,536.05v44.72a81.44,81.44,0,1,0,81.44,0V536.05a122.21,122.21,0,1,1-81.44,0Z"/><path class="cls-3" d="M212.66,530.78a123.49,123.49,0,0,1,40.72,0v41.65a81.93,81.93,0,0,0-40.72,0Z"/><path class="cls-3" d="M212.66,688.63V593.7a61.3,61.3,0,0,1,40.72,0v94.93a61.3,61.3,0,0,1-40.72,0Z"/></g></g></svg>